<?xml version="1.0" standalone="no"?><!DOCTYPE svg PUBLIC "-//W3C//DTD SVG 1.1//EN" "http://www.w3.org/Graphics/SVG/1.1/DTD/svg11.dtd"><svg t="1599397845235" class="icon" viewBox="0 0 1307 1024" version="1.1" xmlns="http://www.w3.org/2000/svg" p-id="3009" xmlns:xlink="http://www.w3.org/1999/xlink" width="255.2734375" height="200"><defs><style type="text/css">path{fill:#8e8337;}</style></defs><path d="M439.644596 616.121191c11.002553-4.096 24.358128-8.017702 40.219234-17.887319 23.094468-14.444936 40.851064-44.42417-2.026213-81.135659-142.227064-204.647489-90.373447-340.534468-68.84766-391.712681-18.061617-7.059064-38.476255-11.133277-62.050042-11.133277h-7.40766c-136.061277 0-172.206298 123.490043-174.886127 192.860596-1.873702 163.360681 98.216851 228.504511 98.216851 228.504511s6.296511 8.627745 6.29651 33.574127c0 5.664681-3.790979 22.745872-10.065702 27.778724C203.318468 642.156936 16.797957 689.239149 3.899915 786.519149c-6.906553 28.105532-2.83234 57.300426-1.41617 84.425532C32.985872 894.365957 130.723404 914.126979 130.723404 914.126979s8.170213-24.619574 16.340426-65.274553c11.939404-60.263489 93.467234-157.565277 292.580766-232.731235z m863.62417 169.482894c-13.355574-97.149277-204.756426-144.231489-261.947915-189.265702-6.601532-5.185362-10.370723-22.13583-10.370723-27.778723 0-24.946383 6.274723-33.421617 6.274723-33.421617s102.617872-64.969532 100.722383-228.177703c-2.83234-69.218043-46.036426-192.708085-179.287149-192.708085h-7.538383c-28.759149 0-52.790468 5.490383-73.531915 14.423149 28.43234 95.275574 62.681872 270.248851-81.397106 387.46417-56.581447 84.273021 131.812766 133.555745 102.617872 120.374469 170.310809 76.582128 216.194723 135.276936 228.765958 195.867234 10.370723 50.677106 16.340426 81.593191 16.340425 81.593191s127.76034-19.456 160.768-44.249872c1.41617-26.841872 5.664681-56.036766-1.41617-84.120511zM747.302128 599.148936c-8.017702-6.449021-12.745532-27.626213-12.745532-34.532766 0-30.916085 7.712681-41.59183 7.712681-41.59183-0.152511 0.174298 126.017362-68.106894 123.511829-283.560851C862.338723 153.469277 809.373957 0 645.773617 0h-9.259574c-171.116936 0-216.543319 153.316766-219.985703 239.485277-2.353021 202.904511 123.51183 283.560851 123.51183 283.560851s15.251064 17.429787 15.251064 48.345872c0 7.059064-12.113702 21.504-20.131404 27.778723-70.242043 56.014979-323.061106 112.509277-339.423319 233.341277-12.723745 51.178213-87.67183 132.466383 161.879149 165.25617 68.804085 8.932766 162.140596 14.292426 288.332255 14.292426 578.886809 0 459.14417-112.051745 442.956255-177.653107-16.492936-120.832-271.36-179.221787-341.62383-235.236766z" p-id="3010"></path></svg>